<svg width="24" height="22" viewBox="0 0 24 22" fill="none" xmlns="http://www.w3.org/2000/svg">
<path d="M11.4946 1.71381C11.7012 1.29527 12.298 1.29527 12.5046 1.71381L15.1786 7.13194C15.2606 7.29814 15.4192 7.41334 15.6026 7.43999L21.5818 8.30883C22.0437 8.37595 22.2282 8.94357 21.8939 9.26936L17.5673 13.4868C17.4346 13.6162 17.374 13.8026 17.4053 13.9852L18.4267 19.9403C18.5056 20.4003 18.0228 20.7512 17.6096 20.534L12.2616 17.7223C12.0976 17.6361 11.9016 17.6361 11.7375 17.7223L6.38953 20.534C5.9764 20.7512 5.49355 20.4003 5.57245 19.9403L6.59383 13.9852C6.62516 13.8026 6.5646 13.6162 6.43187 13.4868L2.10525 9.26936C1.77102 8.94357 1.95545 8.37595 2.41734 8.30883L8.3966 7.43999C8.58001 7.41334 8.73857 7.29814 8.8206 7.13194L11.4946 1.71381Z" fill="#FFFF00" stroke="black" stroke-width="2" stroke-linejoin="round"/>
</svg>
